:SAMPLES-PER-SECOND 30
:FULLY-SPECIFIED
:DEGREES
386
root  11.7409 38.8599 -2.38954 60.3436 -74.1468 -61.2925
RightUpLeg  -10.5203 -0.524412 17.0736
RightLeg  15.8624 -3.62984 0.27288
RightFoot  -6.77932 -0.610874 14.0687
RightToes  -5.28226e-011 1.30204e-014 -6.03759e-014
Spine  12.1079 3.56416 -12.5543
Spine1  -1.76638 -2.07731 27.9816
HEad  -6.33222 1.69393 2.92444
LeftShoulder1  2.10982 -6.06374 -15.2381
LeftArm  -51.533 4.64782 -54.6162
LeftForeArm  -69.6471 -22.5436 -5.93977
LeftHand  0.599801 -6.04018 -5.74648
RightShoulder  1.35849 1.52129 20.751
RightArm  -47.5777 3.15844 38.4621
RightForeArm  -78.2001 13.3084 -3.83602
RightHand  1.23754 5.75535 12.4866
LeftUpLeg  -17.1043 -13.5399 14.9044
LeftLeg  35.9626 12.1365 9.67066
LeftFoot  -15.2796 -0.234451 -9.41525
LeftToes  -2.42178e-010 -1.66495e-011 -2.88221e-011
387
root  11.92 39.1208 -1.92438 55.0643 -77.4268 -56.0155
RightUpLeg  -11.323 -0.937364 13.2301
RightLeg  17.5515 -1.50863 -0.561815
RightFoot  -5.80838 -0.768959 15.039
RightToes  -5.28226e-011 1.30204e-014 -6.03759e-014
Spine  12.8192 3.05043 -11.6536
Spine1  -1.52106 -1.92538 23.4619
HEad  -6.80777 2.16373 1.15828
LeftShoulder1  2.17819 -6.22504 -15.6071
LeftArm  -48.0073 4.16757 -54.821
LeftForeArm  -72.0758 -20.1121 -4.02256
LeftHand  0.462941 -5.83609 -4.45072
RightShoulder  1.47248 1.95137 20.698
RightArm  -46.6033 3.3518 40.035
RightForeArm  -78.0489 12.4107 -4.10517
RightHand  1.22406 5.56132 12.5767
LeftUpLeg  -14.9963 -9.27781 10.4285
LeftLeg  31.7046 10.0092 6.95202
LeftFoot  -13.7875 -0.0686002 -7.0713
LeftToes  -2.42178e-010 -1.66495e-011 -2.88221e-011
388
root  12.077 39.2779 -1.37995 42.1956 -80.3076 -43.0587
RightUpLeg  -13.3503 0.070257 8.50541
RightLeg  21.5084 -3.00204 -1.56808
RightFoot  -5.55897 -0.762893 14.2604
RightToes  -5.28226e-011 1.30204e-014 -6.03759e-014
Spine  13.6254 1.8683 -9.95784
Spine1  -1.86377 -2.08403 18.0542
HEad  -7.03643 2.58798 -0.545083
LeftShoulder1  2.23626 -6.26199 -16.1641
LeftArm  -43.7447 3.66913 -54.7067
LeftForeArm  -75.8978 -17.3426 -2.16242
LeftHand  0.392948 -4.9824 -4.09353
RightShoulder  1.57453 2.35534 20.5632
RightArm  -45.0236 3.46337 41.9582
RightForeArm  -77.811 11.161 -4.19403
RightHand  1.20904 5.69755 12.2628
LeftUpLeg  -13.1081 -6.54182 5.36153
LeftLeg  27.7518 8.69281 5.26681
LeftFoot  -12.2506 0.0315542 -5.34603
LeftToes  -2.42178e-010 -1.66495e-011 -2.88221e-011
389
root  12.2028 39.3437 -0.801655 18.871 -81.8389 -19.6445
RightUpLeg  -16.1374 0.564998 3.69155
RightLeg  27.3227 -5.4905 -3.30816
RightFoot  -6.54129 -0.558439 12.1707
RightToes  -5.28226e-011 1.30204e-014 -6.03759e-014
Spine  14.2142 0.0966486 -7.2716
Spine1  -2.18922 -2.52524 11.417
HEad  -7.50939 2.84935 -2.02661
LeftShoulder1  2.28531 -6.22622 -16.8041
LeftArm  -39.9959 2.85307 -54.0592
LeftForeArm  -79.1914 -14.5449 -1.01904
LeftHand  0.298884 -3.89453 -3.46981
RightShoulder  1.63955 2.65456 20.2908
RightArm  -43.4426 3.49133 44.4875
RightForeArm  -77.1472 9.69674 -4.01405
RightHand  1.1974 6.02707 11.7706
LeftUpLeg  -11.4018 -5.07978 0.0805208
LeftLeg  24.2087 7.9348 4.27527
LeftFoot  -10.7894 0.085184 -4.24328
LeftToes  -2.42178e-010 -1.66495e-011 -2.88221e-011
390
root  12.2676 39.3059 -0.246908 -10.575 -81.8601 9.80103
RightUpLeg  -18.9124 2.01263 -1.18979
RightLeg  33.8747 -6.3671 -4.79117
RightFoot  -7.64461 -0.388319 10.4365
RightToes  -5.28226e-011 1.30204e-014 -6.03759e-014
Spine  14.1523 -1.67411 -4.35105
Spine1  -1.9609 -2.81154 3.74533
HEad  -8.11596 2.88812 -3.2403
LeftShoulder1  2.33766 -6.21437 -17.4196
LeftArm  -37.7751 1.80434 -53.0814
LeftForeArm  -80.6817 -12.0833 -0.588878
LeftHand  0.157916 -3.04194 -1.95679
RightShoulder  1.70633 2.99606 19.8874
RightArm  -41.8316 3.55274 47.3383
RightForeArm  -76.0773 7.85705 -3.72747
RightHand  1.20758 6.10843 11.786
LeftUpLeg  -9.63391 -2.90123 -5.33194
LeftLeg  21.0566 6.39831 3.34149
LeftFoot  -9.58046 0.111414 -3.47432
LeftToes  -2.42178e-010 -1.66495e-011 -2.88221e-011
